<?xml version="1.0" encoding="UTF-8"?>
<svg width="479px" height="282px" viewBox="0 0 479 282" version="1.1" xmlns="http://www.w3.org/2000/svg" xmlns:xlink="http://www.w3.org/1999/xlink">
    <title>87BE1DA7-2C63-4384-87AC-907E5360D9E6</title>
    <g id="support" stroke="none" stroke-width="1" fill="none" fill-rule="evenodd">
        <g id="contact-us" transform="translate(-1267.000000, -1306.000000)">
            <g id="customer-support" transform="translate(1267.000000, 1306.000000)">
                <rect id="Rectangle" fill="#DFF3FD" fill-rule="nonzero" transform="translate(430.500000, 177.000000) rotate(-180.000000) translate(-430.500000, -177.000000) " x="413" y="97" width="35" height="160"></rect>
                <rect id="Rectangle" fill="#DFF3FD" fill-rule="nonzero" x="361" y="147" width="53" height="110"></rect>
                <rect id="Rectangle" fill="#DFF3FD" fill-rule="nonzero" x="426" y="179" width="53" height="78"></rect>
                <rect id="Rectangle" fill="#DFF3FD" fill-rule="nonzero" transform="translate(428.000000, 93.000000) rotate(-180.000000) translate(-428.000000, -93.000000) " x="414" y="89" width="28" height="8"></rect>
                <rect id="Rectangle" fill="#DFF3FD" fill-rule="nonzero" transform="translate(424.500000, 86.000000) rotate(-180.000000) translate(-424.500000, -86.000000) " x="413" y="82" width="23" height="8"></rect>
                <rect id="Rectangle" fill="#DFF3FD" fill-rule="nonzero" transform="translate(422.500000, 78.000000) rotate(-180.000000) translate(-422.500000, -78.000000) " x="413" y="74" width="19" height="8"></rect>
                <rect id="Rectangle" fill="#DFF3FD" fill-rule="nonzero" transform="translate(293.500000, 177.000000) rotate(-180.000000) translate(-293.500000, -177.000000) " x="276" y="97" width="35" height="160"></rect>
                <rect id="Rectangle" fill="#DFF3FD" fill-rule="nonzero" transform="translate(388.500000, 151.500000) rotate(-180.000000) translate(-388.500000, -151.500000) " x="371" y="46" width="35" height="211"></rect>
                <rect id="Rectangle" fill="#DFF3FD" fill-rule="nonzero" transform="translate(241.000000, 225.500000) rotate(-180.000000) translate(-241.000000, -225.500000) " x="206" y="195" width="70" height="61"></rect>
                <rect id="Rectangle" fill="#DFF3FD" fill-rule="nonzero" transform="translate(328.000000, 139.000000) rotate(-180.000000) translate(-328.000000, -139.000000) " x="293" y="21" width="70" height="236"></rect>
                <rect id="Rectangle" fill="#DFF3FD" fill-rule="nonzero" transform="translate(290.000000, 93.000000) rotate(-180.000000) translate(-290.000000, -93.000000) " x="276" y="89" width="28" height="8"></rect>
                <rect id="Rectangle" fill="#DFF3FD" fill-rule="nonzero" transform="translate(287.500000, 86.000000) rotate(-180.000000) translate(-287.500000, -86.000000) " x="276" y="82" width="23" height="8"></rect>
                <rect id="Rectangle" fill="#DFF3FD" fill-rule="nonzero" transform="translate(284.500000, 78.000000) rotate(-180.000000) translate(-284.500000, -78.000000) " x="275" y="74" width="19" height="8"></rect>
                <rect id="Rectangle" fill="#DFF3FD" fill-rule="nonzero" transform="translate(225.500000, 177.000000) rotate(-180.000000) translate(-225.500000, -177.000000) " x="208" y="97" width="35" height="160"></rect>
                <rect id="Rectangle" fill="#DFF3FD" fill-rule="nonzero" x="244" y="125" width="35" height="132"></rect>
                <rect id="Rectangle" fill="#DFF3FD" fill-rule="nonzero" x="155" y="61" width="53" height="195"></rect>
                <rect id="Rectangle" fill="#DFF3FD" fill-rule="nonzero" transform="translate(222.000000, 93.000000) rotate(-180.000000) translate(-222.000000, -93.000000) " x="208" y="89" width="28" height="8"></rect>
                <rect id="Rectangle" fill="#DFF3FD" fill-rule="nonzero" transform="translate(219.500000, 86.000000) rotate(-180.000000) translate(-219.500000, -86.000000) " x="208" y="82" width="23" height="8"></rect>
                <rect id="Rectangle" fill="#DFF3FD" fill-rule="nonzero" transform="translate(217.500000, 78.000000) rotate(-180.000000) translate(-217.500000, -78.000000) " x="208" y="74" width="19" height="8"></rect>
                <rect id="Rectangle" fill="#DFF3FD" fill-rule="nonzero" transform="translate(87.500000, 177.000000) rotate(-180.000000) translate(-87.500000, -177.000000) " x="70" y="97" width="35" height="160"></rect>
                <rect id="Rectangle" fill="#DFF3FD" fill-rule="nonzero" transform="translate(53.500000, 191.000000) rotate(-180.000000) translate(-53.500000, -191.000000) " x="36" y="125" width="35" height="132"></rect>
                <rect id="Rectangle" fill="#DFF3FD" fill-rule="nonzero" transform="translate(131.500000, 180.000000) rotate(-180.000000) translate(-131.500000, -180.000000) " x="114" y="103" width="35" height="154"></rect>
                <rect id="Rectangle" fill="#DFF3FD" fill-rule="nonzero" transform="translate(18.500000, 217.500000) rotate(-180.000000) translate(-18.500000, -217.500000) " x="1" y="179" width="35" height="77"></rect>
                <rect id="Rectangle" fill="#DFF3FD" fill-rule="nonzero" transform="translate(123.000000, 198.000000) rotate(-180.000000) translate(-123.000000, -198.000000) " x="88" y="140" width="70" height="116"></rect>
                <rect id="Rectangle" fill="#DFF3FD" fill-rule="nonzero" transform="translate(84.000000, 93.000000) rotate(-180.000000) translate(-84.000000, -93.000000) " x="70" y="89" width="28" height="8"></rect>
                <rect id="Rectangle" fill="#DFF3FD" fill-rule="nonzero" transform="translate(47.000000, 227.000000) rotate(-180.000000) translate(-47.000000, -227.000000) " x="33" y="223" width="28" height="8"></rect>
                <rect id="Rectangle" fill="#DFF3FD" fill-rule="nonzero" transform="translate(82.500000, 86.000000) rotate(-180.000000) translate(-82.500000, -86.000000) " x="71" y="82" width="23" height="8"></rect>
                <rect id="Rectangle" fill="#DFF3FD" fill-rule="nonzero" transform="translate(79.500000, 78.000000) rotate(-180.000000) translate(-79.500000, -78.000000) " x="70" y="74" width="19" height="8"></rect>
                <rect id="Rectangle" fill="#DFF3FD" fill-rule="nonzero" transform="translate(245.000000, 143.000000) rotate(-180.000000) translate(-245.000000, -143.000000) " x="222" y="139" width="46" height="8"></rect>
                <rect id="Rectangle" fill="#DFF3FD" fill-rule="nonzero" transform="translate(245.000000, 171.000000) rotate(-180.000000) translate(-245.000000, -171.000000) " x="222" y="167" width="46" height="8"></rect>
                <rect id="Rectangle" fill="#DFF3FD" fill-rule="nonzero" transform="translate(245.000000, 198.000000) rotate(-180.000000) translate(-245.000000, -198.000000) " x="222" y="194" width="46" height="8"></rect>
                <rect id="Rectangle" fill="#DFF3FD" fill-rule="nonzero" transform="translate(68.000000, 198.000000) rotate(-180.000000) translate(-68.000000, -198.000000) " x="45" y="194" width="46" height="8"></rect>
                <rect id="Rectangle" fill="#DFF3FD" fill-rule="nonzero" transform="translate(68.000000, 227.000000) rotate(-180.000000) translate(-68.000000, -227.000000) " x="45" y="223" width="46" height="8"></rect>
                <path d="M189.490992,78.2271374 C181.15449,86.8199204 188.69704,107.758656 202.09499,104.69686 C216.48538,101.437528 214.302011,79.2148136 201.301037,75.5604116 C196.239589,74.177665 192.269826,75.461644 189.490992,78.2271374 Z" id="Path" fill="#57B8E8" fill-rule="nonzero"></path>
                <path d="M254.869165,107.120892 C251.712621,110.162497 248.062867,112.517288 243.623976,113.498451 C235.338048,115.36266 227.545329,111.732358 220.541747,107.513357 C213.143597,103 205.745446,98.4866579 198.741864,93.3846106 C193.711122,89.7543078 188.581737,85.829656 185.523835,80.3351436 C181.874081,73.9575845 181.676797,66.4026299 182.465933,59.3382567 C182.959143,54.5305583 180.690377,50.2134414 179.703957,45.6019756 C177.731117,36.6733929 179.703957,26.0768332 188.187169,20.8766696 C192.527417,18.2275297 196.966308,18.6199949 201.50384,20.5823207 C204.95631,22.0540651 208.211496,24.1145073 211.861251,25.0956702 C219.555327,27.2542287 227.939897,24.3107399 235.535332,22.7408792 C240.960642,21.6616 246.977805,21.0729022 252.403115,22.8389955 C258.420277,24.8013214 261.280895,29.2165546 264.536082,34.2204855 C267.298058,38.5376025 271.638306,41.7754402 274.992134,45.7000919 C279.529666,50.9002555 280.910654,57.3759309 279.431024,64.0478388 C277.162258,73.7613519 271.539664,82.1993532 266.706206,90.7354707 C263.352377,96.2299832 259.702623,102.509426 254.869165,107.120892 Z" id="Path" fill="#0B2D4E" fill-rule="nonzero"></path>
                <path d="M193.511421,198.882857 C203.35722,183.680626 209.498659,165.067638 200.920141,147.818953 C200.042793,146.06485 198.970478,144.213296 197.118298,143.531144 C193.121489,142.166842 187.759915,143.628595 184.348005,145.675049 C172.357576,152.691463 165.04634,165.94469 158.320002,177.638714 C151.301214,189.819989 145.257259,202.585965 138.238471,214.76724 C135.41146,219.7372 132.486965,224.70716 131.024718,230.164371 C129.659954,234.939431 129.56247,240.494092 131.317167,245.171702 C139.213303,265.538793 160.854564,240.591543 167.483419,233.087877 C176.939285,222.465805 185.712769,210.869232 193.511421,198.882857 Z" id="Path" fill="#EFB126" fill-rule="nonzero"></path>
                <path d="M243.406645,105.948015 C242.327589,107.111256 241.150437,107.983686 239.678996,108.662244 C236.049443,110.407105 231.733218,110.310168 227.907473,109.146927 C224.081728,107.983686 220.550271,105.851078 217.313102,103.524596 C208.386364,97.320644 197.399609,89.0810202 192.004328,79.4842819 C188.767159,73.5711402 186.314758,66.5916942 189.453831,60.1938686 C192.102424,54.6684739 197.595801,50.5971304 203.873947,50.0155099 C204.364427,50.0155099 204.953003,49.9185731 205.345387,50.2093834 C205.835867,50.5001936 206.228252,50.9848774 206.52254,51.4695611 C208.778748,55.1531576 210.544477,59.1275644 213.291165,62.4234139 C216.332142,66.0100737 219.961695,68.8212394 224.081728,71.2446582 C230.654162,75.1221282 237.815172,78.0302307 243.995221,82.5862579 C248.409542,85.7851707 248.507638,93.1523637 247.428582,98.1930747 C246.840006,100.907304 245.466662,103.718469 243.406645,105.948015 Z" id="Path" fill="#061F33" fill-rule="nonzero"></path>
                <g id="Group" transform="translate(175.000000, 125.000000)" fill-rule="nonzero">
                    <g id="SVGID_1_-link" transform="translate(0.000000, 4.905063)" fill="#FFC73C">
                        <path d="M117.682258,50.1297468 C120.804839,38.6518987 122.46371,26.8797468 115.340323,19.1297468 C112.120161,15.5981013 106.460484,13.1455696 101.776613,11.3797468 C92.7016129,7.94620253 83.333871,3.33544304 73.5758065,1.86392405 C63.3298387,0.294303797 51.9129032,-0.686708861 41.6669355,1.56962025 C35.1290323,3.04113924 29.0790323,5.59177215 23.2241935,8.43670886 C15.4177419,12.2626582 9.85564516,14.8132911 7.31854839,22.6613924 C4.58629032,31.3924051 2.82983871,40.3196203 1.9516129,49.3449367 C-0.780645161,75.6360759 2.82983871,102.025316 2.73225806,128.414557 C2.73225806,130.96519 2.73225806,133.712025 4.0983871,136.066456 C6.63548387,140.677215 13.6612903,140.677215 18.7354839,140.677215 C35.3241935,140.677215 52.0104839,140.579114 68.5991935,140.579114 C75.5274194,140.579114 80.7967742,141.265823 87.3346774,142.443038 C92.7991935,143.424051 97.4830645,141.06962 100.117742,136.655063 C102.557258,132.436709 102.752419,127.629747 103.045161,122.920886 C104.118548,104.674051 107.045968,86.5253165 111.925,68.7689873 C113.38871,63.5696203 115.828226,56.9968354 117.682258,50.1297468 Z" id="SVGID_1_"></path>
                    </g>
                    <path d="M77.4790323,21.5822785 C80.9919355,15.8924051 81.7725806,8.73101266 77.1862903,3.23734177 C75.0395161,0.686708861 71.3314516,0.392405063 68.208871,0.392405063 C61.9637097,0.294303797 55.6209677,0.882911392 49.5709677,2.25632911 C43.716129,3.53164557 37.7637097,5.78797468 35.3241935,11.4778481 C33.4701613,15.6962025 34.0556452,20.6012658 36.5927419,24.4272152 C38.8370968,27.9588608 42.5451613,30.5094937 46.741129,31.4905063 C53.4741935,33.0601266 61.2806452,32.8639241 67.7209677,30.2151899 C71.5266129,28.6455696 75.1370968,25.4082278 77.4790323,21.5822785 Z" id="Path" fill="#EFB126"></path>
                    <path d="M12.1975806,144.503165 C18.9306452,147.642405 26.2491935,149.310127 33.4701613,150.487342 C53.8645161,153.920886 74.7467742,154.607595 95.433871,153.626582 C99.825,153.43038 104.606452,152.939873 107.924194,149.996835 C110.36371,147.740506 111.534677,144.503165 112.315323,141.265823 C115.047581,130.376582 115.047581,118.898734 114.95,107.617089 C114.95,98.7879747 114.852419,90.056962 114.852419,81.2278481 C114.852419,78.1867089 116.804032,59.5474684 112.120161,59.7436709 C111.632258,59.7436709 111.144355,60.0379747 110.754032,60.3322785 C108.412097,62 107.143548,64.8449367 106.070161,67.5917722 C102.654839,76.028481 99.7274194,89.5664557 92.5064516,95.5506329 C84.9927419,101.731013 76.2104839,104.674051 67.1354839,107.617089 C51.2298387,112.816456 33.5677419,115.072785 20.1016129,125.667722 C17.8572581,127.433544 15.7104839,129.39557 13.6612903,131.357595 C11.8072581,133.123418 9.27016129,134.987342 8.09919355,137.439873 C6.24516129,141.265823 8.97741935,143.031646 12.1975806,144.503165 Z" id="Path" fill="#EFB126"></path>
                </g>
                <rect id="Rectangle" fill="#FFFFFF" fill-rule="nonzero" transform="translate(239.500000, 269.500000) rotate(-180.000000) translate(-239.500000, -269.500000) " x="0" y="257" width="479" height="25"></rect>
                <path d="M330.906881,206.72477 C333.463882,211.355253 336.020882,215.887215 338.479536,220.517698 C343.495191,229.975706 352.838077,250.86214 337.889459,255.985228 C330.316804,258.546771 325.989573,256.083749 321.072264,250.566577 C302.1898,229.680143 286.061028,206.330686 273.374372,181.306374 C268.653755,171.946887 256.065446,147.612221 271.309102,142.095049 C276.128064,140.321673 281.733796,140.715756 286.25772,143.178779 C288.32299,144.262509 290.191567,145.838844 291.961798,147.316658 C302.976569,157.168749 310.844263,169.976468 317.925187,182.882708 C322.154072,190.862902 326.57965,198.744576 330.906881,206.72477 Z" id="Path" fill="#FFC73C" fill-rule="nonzero"></path>
                <path d="M253.777902,239.996669 C255.048111,239.800896 256.416029,239.605123 257.686239,239.311464 C264.037286,238.332599 270.486043,237.15796 276.739382,235.787549 C289.24606,233.144613 301.850447,230.795337 314.65025,229.620699 C316.018168,229.522812 317.386086,229.424926 318.754004,229.229153 C324.518801,228.837607 330.479015,228.641834 335.657562,231.28477 C340.933817,233.927706 345.03757,240.290329 343.767361,246.359293 C342.887985,250.666299 339.46819,253.896554 335.75527,255.560625 C332.04235,257.224696 327.938596,257.518355 323.932551,257.714128 C310.93733,258.595107 297.844401,259.476086 284.849181,260.357064 C278.400425,260.74861 271.951669,261.238043 265.502913,261.727475 C259.347282,262.119021 253.093943,263 246.938312,263 C244.300185,263 241.368932,262.510567 239.219347,260.846497 C236.190385,258.49722 234.333925,253.407122 234.0408,249.491661 C233.845383,247.436044 234.333925,244.988882 235.89726,243.716357 C236.776636,243.031151 237.851429,242.835378 238.926221,242.639605 C243.909351,241.758627 248.794772,240.877648 253.777902,239.996669 Z" id="Path" fill="#FFC73C" fill-rule="nonzero"></path>
                <rect id="Rectangle" fill="#2F95D2" fill-rule="nonzero" x="140" y="245" width="62" height="12"></rect>
                <path d="M150.903166,246.585177 L135.28177,166.642699 C134.891235,164.575221 133.036194,163 130.888252,163 L27.3965006,163 C25.9319947,163 24.5651225,163.787611 23.7840527,164.870575 L23.7840527,164.870575 L19,170.580752 L23.1982503,169.596239 L38.5267455,248.357301 C38.9172804,250.424779 40.7723212,252 42.9202633,252 L146.509648,252 C149.341026,252 151.488968,249.440265 150.903166,246.585177 Z" id="Path" fill="#2F95D2" fill-rule="nonzero"></path>
                <path d="M38.1385333,257 L142.501097,257 C145.353608,257 147.41922,254.440265 146.927407,251.585177 L131.189415,171.642699 C130.795965,169.575221 128.927078,168 126.763104,168 L22.4989031,168 C19.646392,168 17.5807804,170.559735 18.0725927,173.414823 L33.8105853,253.357301 C34.1056727,255.52323 35.9745593,257 38.1385333,257 Z" id="Path" fill="#0B2D4E" fill-rule="nonzero"></path>
                <path d="M70.1662929,211 C71.1630706,216.555556 76.3463145,221 81.8285916,221 C87.3108688,221 90.8992684,216.555556 89.802813,211 C88.7063575,205.444444 83.5231137,201 78.1405143,201 C72.7579149,201 69.1695153,205.444444 70.1662929,211 Z" id="Path" fill="#2F95D2" fill-rule="nonzero"></path>
                <path d="M238.314852,260.020056 C235.190904,260.708728 232.847944,263.365038 229.723997,264.250474 C227.576283,264.939147 225.233323,264.54562 223.085609,263.758565 C221.133142,263.069892 219.180675,262.676365 217.228208,261.987692 C215.666234,261.495783 213.616144,260.413583 211.956547,260.80711 C207.563496,261.692547 203.268068,264.840765 199.363134,266.906783 C198.484524,267.398693 197.50829,267.79222 196.532057,267.595456 C195.555823,267.398693 194.774836,266.218111 195.262953,265.431056 C194.091473,266.513256 192.627123,268.677656 190.772279,267.79222 C189.991292,267.497074 189.600799,266.414874 189.991292,265.726201 C189.405552,266.414874 188.722189,267.103547 187.843578,267.497074 C186.964968,267.890602 185.793488,267.693838 185.305371,266.906783 C185.110125,266.513256 185.012501,266.119729 185.012501,265.62782 C184.914878,264.152092 185.402995,262.577983 185.988735,261.200638 C189.112682,254.412292 196.141563,249.296437 202.096588,245.262782 C203.170445,244.574109 204.244302,243.787055 205.415782,243.393527 C206.489639,243.098382 207.661119,243 208.832599,243 C216.251974,243 223.671349,244.180582 230.70023,246.541746 C232.262204,247.033655 233.921801,246.640128 235.386151,246.344982 C236.460008,246.148218 237.631488,245.951455 238.802969,246.2466 C240.072072,246.640128 240.950682,247.623946 241.731669,248.607764 C243.098396,250.5754 244.172253,253.034946 243.977006,255.494492 C243.879383,257.363746 243.684136,259.331383 241.536422,259.72491 C240.657812,259.921674 239.779202,259.823292 238.900592,259.921674 C238.705345,259.921674 238.510098,260.020056 238.314852,260.020056 Z" id="Path" fill="#F8A17A" fill-rule="nonzero"></path>
                <path d="M238.874634,149.770465 C243.381983,148.303073 247.203431,145.466115 248.575233,140.966112 C249.849049,136.857413 247.889332,132.357411 247.497388,128.248712 C247.203431,124.335666 247.105445,120.324794 247.399403,116.411748 C247.595374,112.792181 247.987318,108.976961 247.399403,105.357393 C247.105445,103.303044 245.929615,103.596523 243.871912,102.813914 C241.81421,102.031304 239.364564,101.933478 237.110889,102.031304 C232.407569,102.031304 220.257325,101.737826 217.31775,105.846524 C215.945948,107.705221 215.847962,110.053049 215.847962,112.30305 C215.749976,115.042182 215.260047,118.466097 214.868104,122.281317 C214.672132,123.944362 214.770118,125.607406 214.574146,127.270451 C214.280189,129.129148 213.594288,130.890018 212.908387,132.748715 C210.556727,139.498719 212.712415,145.955245 220.061353,149.085682 C225.254603,151.237857 232.799512,151.726988 238.874634,149.770465 Z" id="Path" fill="#F8A17A" fill-rule="nonzero"></path>
                <path d="M247.686145,104.353705 C247.394911,102.301613 246.229972,102.594769 244.191329,101.813019 C242.152686,101.03127 239.725731,100.933551 237.492931,101.03127 C232.833176,101.03127 220.795476,100.738114 217.883129,104.842299 C216.524034,106.698954 216.426956,109.044202 216.426956,111.291732 C216.329877,114.027855 215.844486,117.448009 215.456173,121.259037 C215.262017,122.920255 215.359095,124.581473 215.164939,126.24269 C214.970782,127.70847 214.485391,129.076532 214,130.444594 C218.465599,132.105811 223.610745,132.496686 228.2705,131.324062 C236.716306,129.271969 243.123469,123.897442 247.686145,117.057134 C247.686145,116.568541 247.686145,115.982228 247.783224,115.493635 C247.880302,111.780325 248.268615,107.969296 247.686145,104.353705 Z" id="Path" fill="#E5785C" fill-rule="nonzero"></path>
                <path d="M254.999097,79.0992512 C254.999097,72.8187408 254.120923,66.9307623 252.462151,62.0241135 C245.534335,40.7292579 219.189121,35.5282102 203.284417,50.7388214 C185.623366,67.7158261 192.356032,108.441011 210.992832,122.768425 C215.96915,126.595611 222.799391,127.969473 228.849033,126.301212 C247.290683,121.394564 255.096672,98.6277133 254.999097,79.0992512 Z" id="Path" fill="#F8A17A" fill-rule="nonzero"></path>
                <path d="M252.453608,62.125722 C245.5,40.7228097 219.056701,35.4953703 203.092784,50.7831648 C201.036082,52.7557835 199.371134,55.0242949 198,57.4900682 C198.979381,58.2791157 199.958763,58.9695322 200.840206,59.4626869 C207.597938,63.5065551 214.845361,66.564114 222.484536,68.5367326 C225.716495,69.424411 229.14433,70.1148275 231.886598,72.1860771 C233.453608,73.3696483 234.530928,74.9477432 235.510309,76.6244691 C236.587629,78.6957186 237.469072,80.9642301 238.154639,83.1341106 C239.819588,87.9670263 240.505155,93.0958347 241.190722,98.1260123 C241.28866,98.6191669 241.386598,99.2109525 241.778351,99.6054763 C242.170103,100 242.659794,100 243.149485,100 C246.087629,99.9013691 247.458763,97.139703 249.809278,95.5616081 C251.180412,94.6739297 252.551546,93.7862513 253.824742,92.701311 C254.608247,88.1642881 255,83.6272653 255,79.1888733 C254.902062,73.0737555 254.020619,67.0572686 252.453608,62.125722 Z" id="Path" fill="#E5785C" fill-rule="nonzero"></path>
                <path d="M238.036883,75.2582811 C238.91041,77.3881136 239.395703,79.7115671 239.880995,81.9382101 C240.851581,86.875549 240.948639,91.9096984 240.948639,96.9438478 C240.948639,97.4279006 240.948639,98.008764 241.336873,98.3960062 C241.628049,98.7832485 242.2104,98.8800591 242.695693,98.9768696 C245.607449,99.2673013 247.354503,96.7502266 249.780966,95.4916893 C252.304488,94.2331519 254.82801,93.0714251 257.060356,91.328835 C263.369161,86.3914961 261.913283,78.2594086 261.719166,71.0954268 C261.622108,67.1261936 261.525049,63.1569604 260.360347,59.2845378 C259.098586,55.1216835 256.575064,51.442882 253.663308,48.2481334 C245.122156,39.0511297 232.31043,34.307412 219.886937,35.0818965 C213.772249,35.4691388 206.784034,38.083024 202.4164,42.4394995 C198.631117,46.2151115 203.289927,51.442882 206.3958,53.8631462 C212.510488,58.7036744 219.304586,62.5760971 226.486917,65.480414 C229.592791,66.7389514 232.892781,67.8038676 235.222186,70.2241317 C236.386888,71.7731008 237.357473,73.4188804 238.036883,75.2582811 Z" id="Path" fill="#0B2D4E" fill-rule="nonzero"></path>
                <path d="M251.817117,79.0056769 C259.592647,74.5720066 262.028355,85.9024975 260.623139,91.5184799 C260.061052,93.8831041 259.217922,96.1492023 257.812706,98.0211965 C255.939084,100.582873 250.692944,104.918017 247.601468,102.060763 C246.196252,100.779925 246.102571,98.6123525 246.00889,96.6418324 C245.915209,91.4199539 246.477295,82.0599832 251.817117,79.0056769 Z" id="Path" fill="#F8A17A" fill-rule="nonzero"></path>
                <path d="M373.152674,209 C374.320295,206.649485 374.125692,204.103093 373.347277,201.850515 C372.666165,199.5 371.401242,197.541237 370.136319,195.386598 C368.774094,193.231959 367.411869,190.881443 366.536153,188.139175 C365.660437,185.298969 365.952342,182.06701 366.730756,179.42268 C368.384887,173.938144 371.887751,169.92268 374.320295,165.71134 C375.487917,163.654639 376.460934,161.5 376.850141,159.149485 C377.239349,156.798969 377.142047,154.350515 375.974425,152 C377.920461,153.762887 378.893479,156.603093 378.990781,159.247423 C379.088082,161.989691 378.40697,164.829897 377.33665,167.278351 C375.293313,172.273196 372.179656,176.28866 370.914733,180.695876 C370.23362,182.850515 370.039017,185.005155 370.525526,187.061856 C370.914733,189.216495 372.082354,191.371134 373.055372,193.721649 C374.125692,196.072165 375.196011,198.716495 375.390615,201.458763 C375.779822,204.201031 375.196011,207.237113 373.152674,209 Z" id="Path" fill="#FFFFFF" fill-rule="nonzero"></path>
                <path d="M378.568254,257 L368.333333,257 C362.625397,257 358,252.414634 358,246.756098 L358,213 L389,213 L389,246.756098 C389,252.317073 384.27619,257 378.568254,257 Z" id="Path" fill="#57B8E8" fill-rule="nonzero"></path>
                <path d="M392.5,222 C385.010949,222 379,228.021583 379,235.5 C379,242.978417 385.010949,249 392.5,249 C399.989051,249 406,242.978417 406,235.5 C406,228.021583 399.890511,222 392.5,222 Z M392.5,244.143885 C387.671533,244.143885 383.828467,240.258993 383.828467,235.5 C383.828467,230.741007 387.671533,226.856115 392.5,226.856115 C397.328467,226.856115 401.171533,230.741007 401.171533,235.5 C401.171533,240.258993 397.229927,244.143885 392.5,244.143885 Z" id="Shape" fill="#57B8E8" fill-rule="nonzero"></path>
                <path d="M363.5,240 L363.5,240 C362.705882,240 362,239.212598 362,238.326772 L362,216.673228 C362,215.787402 362.705882,215 363.5,215 L363.5,215 C364.294118,215 365,215.787402 365,216.673228 L365,238.326772 C365,239.311024 364.294118,240 363.5,240 Z" id="Path" fill="#FFFFFF" fill-rule="nonzero" opacity="0.2"></path>
                <path d="M382.843137,212 L382.843137,249.035398 C382.843137,253.415929 379.313725,257 375,257 L382.156863,257 C386.470588,257 390,253.415929 390,249.035398 L390,212 L382.843137,212 Z" id="Path" fill="#2F95D2" fill-rule="nonzero"></path>
                <path d="M185.666841,56.5348101 C182.145256,46.7246835 175.199908,38.778481 179.210602,27.7911392 C181.558325,21.3164557 187.623278,17.0981013 194.470805,17 C197.698924,17 200.927044,17.7848101 203.763877,19.3544304 C207.089818,21.3164557 209.241898,24.4556962 213.154771,25.4367089 C222.252199,27.8892405 231.740915,20.9240506 240.447056,19.2563291 C249.055376,17.6867089 258.250626,20.5316456 262.456964,28.7721519 C264.119935,32.0094937 264.804687,35.835443 267.054589,38.778481 C270.673996,43.6835443 277.814988,45.3512658 280.749643,50.7468354 C285.44509,59.5759494 275.76073,72.2310127 270.771818,79" id="Path" stroke="#0B2D4E" stroke-width="1.2601"></path>
                <path d="M224.95977,116 C223.005747,116 220.954023,115.803922 219,115.509804 L219.390805,113.058824 C226.718391,114.137255 233.948276,113.156863 240.396552,110.117647 C242.155172,109.333333 243.62069,108.45098 244.988506,107.470588 C247.333333,105.705882 249.385057,103.45098 250.850575,101 L253,102.27451 C251.33908,105.117647 249.091954,107.666667 246.454023,109.529412 C244.988506,110.607843 243.425287,111.490196 241.471264,112.372549 C236.293103,114.72549 230.626437,116 224.95977,116 Z" id="Path" fill="#2F95D2" fill-rule="nonzero"></path>
                <path d="M211.398294,110.819789 C214.304832,108.251026 220.892985,108.448623 223.024446,111.116184 C224.671484,113.092155 224.090177,115.660918 222.346254,117.340493 C220.214793,119.316464 217.695793,119.217666 215.079909,118.624874 C211.882717,117.834486 207.813564,113.882544 211.398294,110.819789 Z" id="Path" fill="#2F95D2" fill-rule="nonzero"></path>
                <path d="M209,34.4299715 C209.686898,34.4299715 210.471925,34.5280151 211.158824,34.4299715 C211.845722,34.4299715 212.630749,34.4299715 213.317648,34.331928 C214.789573,34.2338844 216.16337,34.0377973 217.537167,33.8417101 C220.382889,33.4495359 223.228612,32.8612745 226.074334,32.4691002 C228.920056,32.0769259 231.863907,31.8808388 234.807758,32.0769259 C235.494656,32.0769259 236.279683,32.1749695 236.966582,32.2730131 C237.65348,32.3710566 238.438507,32.4691002 239.125405,32.6651873 C240.597331,33.0573616 241.971128,33.5475794 243.246796,34.331928 C243.933695,34.7241022 244.522465,35.1162765 245.111235,35.6064943 C245.700005,36.0967122 246.190647,36.6849736 246.681289,37.273235 C247.171931,37.8614964 247.564444,38.5478013 247.956958,39.1360627 C248.349471,39.8223677 248.545728,40.5086727 248.741984,41.2930212 C248.938241,42.0773697 249.03637,42.7636747 248.938241,43.5480232 C248.938241,44.3323718 248.741984,45.1167203 248.643856,45.8030253 C248.447599,46.4893302 248.349471,47.1756352 248.153214,47.8619402 C248.055086,48.5482451 248.055086,49.2345501 248.055086,49.9208551 C248.153214,51.293465 248.643856,52.5680314 249.232626,53.8425977 C249.821396,55.1171641 250.508295,56.3917305 251.195193,57.6662968 C251.882092,58.9408632 252.470862,60.3134731 252.765247,61.6860831 C252.961504,62.372388 253.059632,63.1567366 252.961504,63.8430415 C252.961504,64.5293465 252.863375,65.313695 252.56899,66 C252.961504,64.6273901 252.765247,63.1567366 252.372734,61.7841266 C251.98022,60.4115167 251.293322,59.1369503 250.606423,57.9604275 C249.919525,56.6858612 249.134498,55.5093384 248.447599,54.234772 C247.760701,52.9602056 247.171931,51.5875957 246.975674,50.0188986 C246.877546,49.2345501 246.877546,48.4502016 246.975674,47.7638966 C247.073802,46.9795481 247.270059,46.2932431 247.368187,45.6069381 C247.466316,44.9206332 247.662573,44.2343282 247.662573,43.5480232 C247.662573,42.8617183 247.564444,42.1754133 247.466316,41.5871519 C246.779417,38.9399756 244.914979,36.7830171 242.559898,35.4104072 C240.204817,34.0377973 237.359095,33.4495359 234.611501,33.2534487 C231.765779,32.959318 228.920056,33.1554052 226.074334,33.4495359 C223.228612,33.7436666 220.382889,34.1358408 217.537167,34.4299715 C216.065242,34.5280151 214.691445,34.6260587 213.219519,34.6260587 C211.943851,34.8221458 210.471925,34.6260587 209,34.4299715 Z" id="Path" fill="#73B8D4" fill-rule="nonzero"></path>
                <path d="M256.017315,75.3554024 C244.43065,78.3006788 239.875208,99.997548 252.848313,104.317287 C266.81173,108.931553 276.615832,89.0018496 267.405918,79.1842617 C263.84079,75.3554024 259.681474,74.3736436 256.017315,75.3554024 Z" id="Path" fill="#57B8E8" fill-rule="nonzero"></path>
                <path d="M258.997195,79.0731656 C250.938421,80.3576233 245.963869,97.3519855 254.321117,101.995794 C263.27531,107.03482 271.632557,91.9177417 266.359532,83.1241473 C264.27022,79.8636011 261.583962,78.6779479 258.997195,79.0731656 Z" id="Path" fill="#2F95D2" fill-rule="nonzero"></path>
                <path d="M260.131874,78 L257.080569,77.6080602 C259.147582,59.6768139 258.261719,36.6503501 242.217761,29.3014787 C234.638714,25.8720053 227.650241,23.3243966 215.248163,25.7740204 C213.476438,25.5780505 212,24.8921558 212,24.8921558 C223.220928,19.4049985 235.229289,22.7364869 243.497341,26.5579 C261.313024,34.6906511 262.395745,59.0889042 260.131874,78 Z" id="Path" fill="#57B8E8" fill-rule="nonzero"></path>
                <path d="M331.773819,77 L407.226181,77 C421.391944,77 433,65.4107143 433,51.2678571 L433,25.7321429 C433,11.5892857 421.391944,0 407.226181,0 L331.773819,0 C317.608056,0 306,11.5892857 306,25.7321429 L306,51.2678571 C306,65.4107143 317.608056,77 331.773819,77 Z" id="Path" fill="#0098D7" fill-rule="nonzero"></path>
                <polygon id="Path" fill="#0098D7" fill-rule="nonzero" points="324 96 324 61 351 75.9722222"></polygon>
                <path d="M385.768388,42 L328.231612,42 C326.970266,42 326,40.9855072 326,39.6666667 L326,37.3333333 C326,36.0144928 326.970266,35 328.231612,35 L385.768388,35 C387.029734,35 388,36.0144928 388,37.3333333 L388,39.6666667 C388,40.9855072 387.029734,42 385.768388,42 Z" id="Path" fill="#E1F4FD" fill-rule="nonzero"></path>
                <path d="M412.7,42 L396.3,42 C395,42 394,40.9855072 394,39.6666667 L394,37.3333333 C394,36.0144928 395,35 396.3,35 L412.7,35 C414,35 415,36.0144928 415,37.3333333 L415,39.6666667 C415,40.9855072 413.9,42 412.7,42 Z" id="Path" fill="#E1F4FD" fill-rule="nonzero"></path>
                <path d="M353.231612,19 L410.768388,19 C412.029734,19 413,20.0144928 413,21.3333333 L413,23.6666667 C413,24.9855072 412.029734,26 410.768388,26 L353.231612,26 C351.970266,26 351,24.9855072 351,23.6666667 L351,21.3333333 C351,20.0144928 352.067293,19 353.231612,19 Z" id="Path" fill="#E1F4FD" fill-rule="nonzero"></path>
                <path d="M328.3,19 L344.7,19 C346,19 347,20.0144928 347,21.3333333 L347,23.6666667 C347,24.9855072 346,26 344.7,26 L328.3,26 C327,26 326,24.9855072 326,23.6666667 L326,21.3333333 C326,20.0144928 327,19 328.3,19 Z" id="Path" fill="#E1F4FD" fill-rule="nonzero"></path>
                <path d="M367.746102,55 L328.253898,55 C326.979955,55 326,53.9855072 326,52.6666667 L326,50.3333333 C326,49.0144928 326.979955,48 328.253898,48 L367.746102,48 C369.020045,48 370,49.0144928 370,50.3333333 L370,52.6666667 C370,53.9855072 368.922049,55 367.746102,55 Z" id="Path" fill="#E1F4FD" fill-rule="nonzero"></path>
            </g>
        </g>
    </g>
</svg>