<svg xmlns="http://www.w3.org/2000/svg" viewBox="0 0 240.93 162.09"><defs><style>.cls-1{fill:#0a093a;}</style></defs><title>Gas-7_1</title><g id="Layer_2" data-name="Layer 2"><g id="Layer_1-2" data-name="Layer 1"><path class="cls-1" d="M161.5,61c-12.75,14.53-32.93,19.52-51.79,23.76L44.38,99.45C32,102.24,19,105.33,9.58,113.88s-13.38,24.46-5,34c9.2,10.49,25.75,7.44,39.67,8.5,17.52,1.33,36,10.4,51.71,2.47,11.55-5.83,17.28-19.14,27.55-27,15.89-12.2,38.55-9,57.42-15.69,28.81-10.27,43.81-41.19,55.91-69.28,10.45-24.25,1.21-56.61-31.38-44.1C183.1,11.37,176,44.51,161.5,61Z"/></g></g></svg>