<svg xmlns="http://www.w3.org/2000/svg" viewBox="0 0 358.52 351.84"><defs><style>.cls-1{fill:#080430;}.cls-2{fill:#0a093a;}</style></defs><title>Gas-1</title><g id="Layer_2" data-name="Layer 2"><g id="Layer_1-2" data-name="Layer 1"><path class="cls-1" d="M79.83,335.09c33.16-34,60.94-32.19,107.59-41.09,6.37-1.22,13.19-2.6,17.72-7.24,8.86-9.07,4.05-24,5.16-36.64,1.86-21.09,20.94-36.07,39.18-46.81a395,395,0,0,1,62.72-29.84c6.13-2.28,12.5-4.5,17.37-8.87,11.86-10.6,10.78-29.42,6.5-44.74s-10.84-31.23-6.74-46.6C332.4,61.78,341,52.73,348,43.13s12.93-21.62,9.59-33c-1.19-4.06-3.81-8-7.79-9.44-2.9-1-6.1-.66-9.11,0-24.6,5.3-42.89,25.57-57.87,45.78s-29.31,42.29-51.34,54.44c-19.76,10.9-44,12.73-62.16,26.16-20.21,15-28.35,40.75-38.3,63.84s-25.94,49.95-51.07,50.85c-50.74,1.81-76.38,9-79.67,47.84S26.45,378.46,79.83,335.09Z"/><path class="cls-2" d="M142,210.5c9.94-19.16,22.64-38.16,41.83-48,9.31-4.79,19.68-7.18,29.08-11.76a68.68,68.68,0,0,0,23.51-18.81c5.75-7.19,10-15.46,15.26-23s11.95-14.61,20.62-17.74,19.6-1.3,25,6.17c3,4.19,4,9.59,3.67,14.75-.94,16.29-13.16,29.81-26.63,39s-28.83,15.62-41.46,26c-18.83,15.42-29.9,38.07-43.9,58s-34,38.73-58.31,39.33c-14.23.35-28.68-11.68-17.93-25.72,4-5.2,10.56-8.43,14.8-13.65C133.49,227.63,137.62,218.89,142,210.5Z"/></g></g></svg>