<svg xmlns="http://www.w3.org/2000/svg" viewBox="0 0 418.89 218.67"><defs><style>.cls-1{fill:#080430;}</style></defs><title>Gas-9_1</title><g id="Layer_2" data-name="Layer 2"><g id="Layer_1-2" data-name="Layer 1"><path class="cls-1" d="M13.09,109.06C5.46,116-2,125.66.48,135.7c1.34,5.52,5.52,9.93,10.1,13.3,35.59,26.16,88.18-1.12,129.33,14.95,4.83,1.89,9.65,4.55,12.41,8.94,6.38,10.13-.7,24.28,4.41,35.1,6.14,13,25.13,12.73,38.13,6.63s25-16.13,39.37-16.36c18.7-.3,38.91,15.92,54.09,5,12.71-9.16,8.91-28.68,13.33-43.71,5.29-18,23-29.45,40.68-35.77s36.67-9.2,53.14-18.17c10.15-5.52,19.51-14,22.44-25.15,2.55-9.75-.17-20.21-4.77-29.18A74.54,74.54,0,0,0,356.7,12C318,7.35,279.08,33.58,241.48,23.39,218.87,17.27,199.33-1.62,176,.11,143.49,2.52,126.16,39.29,102.51,57,74.43,78,39.39,85,13.09,109.06Z"/></g></g></svg>