<svg xmlns="http://www.w3.org/2000/svg" viewBox="0 0 351.44 371.77"><defs><style>.cls-1{fill:#080430;}.cls-2{fill:#0a093a;}</style></defs><title>Gas-6_1</title><g id="Layer_2" data-name="Layer 2"><g id="Layer_1-2" data-name="Layer 1"><path class="cls-1" d="M12.39,255.31c1.09,6.23,4,12.1,4.39,18.41,1,15.91-13.4,28.73-16.32,44.4C-3,336.53,13.35,356,32.08,355.76c10.54-.12,21.57-5.35,31.17-1,6.5,2.94,10.54,9.6,16.59,13.38,7.77,4.85,17.81,4.27,26.6,1.7s17-6.92,25.85-9.27c14.76-3.93,30.43-2.13,45.51-4.49s31.19-11,34.35-25.93c2.37-11.23-3.25-22.9-1.38-34.23,2.8-16.91,20.57-26.62,36.8-32.16s34.52-10.55,43.64-25.06c17.51-27.85-12.18-65.72-.32-96.41,8.17-21.11,34.4-33.52,36.49-56.05.73-7.9-1.77-16.08.55-23.67,2.38-7.8,9.27-13.18,14.94-19.06s10.59-14.2,7.74-21.85c-1.3-3.48-4-6.2-6.68-8.8C336,5.1,325.12-3.2,315,1.25c-5,2.2-8.31,7.1-10.86,12-5.61,10.71-9.07,22.44-14.79,33.09S274.89,66.88,263.21,70c-9.67,2.55-19.84.08-29.8-.84s-21.3.33-27.63,8.07c-3,3.61-4.41,8.18-5.85,12.61q-5.94,18.42-12.81,36.53c-7.3,19.26-15.91,39-31.71,52.19-10.41,8.69-23.21,13.91-35.78,19-25.14,10.17-48.76,17.68-75.78,19.9C24.73,219,8.69,234.2,12.39,255.31Z"/><path class="cls-2" d="M45.15,264.26c-5.9,9.7-5.35,23.85,3.47,31,5.75,4.66,13.55,5.55,20.71,7.42,20.43,5.32,39,19.81,60,18.47,2.71-.18,5.54-.68,7.67-2.37,3-2.39,3.89-6.51,5.11-10.16A40.51,40.51,0,0,1,163.4,285c6.11-2.81,13-4.09,18.54-7.84,9.57-6.44,13.42-19.57,10.45-30.72s-11.88-20.15-22.36-25c-21-9.72-40.63,13-61.37,17.23C87,243,58.11,242.92,45.15,264.26Z"/></g></g></svg>