<svg xmlns="http://www.w3.org/2000/svg" viewBox="0 0 353.51 256.8"><defs><style>.cls-1{fill:#080430;}</style></defs><title>Gas-3_1</title><g id="Layer_2" data-name="Layer 2"><g id="Layer_1-2" data-name="Layer 1"><path class="cls-1" d="M133,121.83c-11.11,2.6-22.72,1.73-34,3.26-27.86,3.76-51.53,21.52-73.8,38.68C16.2,170.67,6.89,178,2.32,188.34S-.2,212.89,9.75,218.26c8.57,4.63,19.13,1.25,28.82,2.3,11.69,1.27,21.51,8.91,31.48,15.13A148.61,148.61,0,0,0,113,253.8c19.29,4.74,41.5,5,57-7.47,17.9-14.35,22.28-41.82,41.83-53.82,23.25-14.28,59.44-1.14,76.88-22.14,8.73-10.5,8.65-25.43,10.26-39,1.83-15.45,6.59-30.89,16.1-43.21,13.56-17.55,37.14-30.34,38.45-52.48C354.55,17.27,337,1.23,318.55.11c-46.31-2.82-48.12,51.16-82.79,65.58-16.83,7-32.51,10.54-47.81,21.53C170.39,99.82,154.78,116.73,133,121.83Z"/></g></g></svg>