<svg xmlns="http://www.w3.org/2000/svg" viewBox="0 0 231.44 169.14"><defs><style>.cls-1{fill:#080430;}.cls-2{fill:#0a093a;}</style></defs><title>Gas-2_1</title><g id="Layer_2" data-name="Layer 2"><g id="Layer_1-2" data-name="Layer 1"><path class="cls-1" d="M3.5,103c-3.38,7.61-4,16.2-3.21,24.49.37,4.05,1.09,8.19,3.17,11.68,2.36,4,6.28,6.79,10.41,8.86,19,9.51,41.71,5.06,62.59,8.78,22.9,4.08,46.15,18.07,67.85,9.7,13.55-5.23,22.62-18.23,28.15-31.66s8.35-27.87,14.11-41.2a101.42,101.42,0,0,1,28-37.48c4.22-3.52,8.8-6.77,12-11.21,6.55-9,6.28-22,.08-31.25S209-.58,198,.05c-5.71.33-11.24,2-16.8,3.36-18,4.3-35.77,4-54,1.73C116.06,3.76,105,1.63,95.77,9.55c-12.7,10.92-12.49,30-23.14,42.37C63.48,62.57,49.93,68.21,37.7,74.4,24.37,81.15,9.9,88.65,3.5,103Z"/><path class="cls-2" d="M79.47,79.19c-11.15,5.47-23,12.67-26.57,24.57a16.94,16.94,0,0,0-.73,7.1c.56,4.27,3.22,8,6.46,10.87,10.84,9.49,27.65,9.41,40.69,3.3s23-17.15,32-28.39,17.55-23.11,29-31.87c7.34-5.63,16.92-12.42,14.92-21.46-4-18.18-39.93-14.87-50.84-5.78-6.76,5.62-10.83,14.14-16.16,21C100.52,68.46,90.65,73.71,79.47,79.19Z"/></g></g></svg>